# xmcd
#
# Track frame offsets:
#	150
#	12967
#	25507
#	36920
#	49632
#	63352
#	76217
#	87587
#	98157
#	109890
#	122190
#	132240
#	143645
#	155555
#	165960
#	177642
#	195220
#	206370
#
# Disc length: 2905
#
# Revision: 1
# Processed by: cddbd v1.5.1PL0 Copyright (c) Steve Scherf et al.
# Submitted via: audiograbber 1.80.04
# Normalized: r0:DSETVAR1
#
DISCID=e50b5712
DTITLE=Various Artist - Blues and Soul Legends CD 3
DYEAR=1996
DGENRE=Blues
TTITLE0=Bob and Earl - Harlem Shuffle
TTITLE1=Carla Thomas - B.A.B.Y.
TTITLE2=Sam and Dave - The Land Of 1000 Dances
TTITLE3=Jimmy Reed - Shame Shame Shame
TTITLE4=Elmore James - She Just Won't Do Right (Dust My Broom)
TTITLE5=Muddy Waters - Got My Mojo Working
TTITLE6=Irma Thomas - Cheater Man
TTITLE7=Rufus Thomas - Walking The Dog
TTITLE8=Martha Reeves - Dancing In The Street
TTITLE9=Buddy Guy - Keep It To Myself
TTITLE10=John Lee Hooker - Dimples
TTITLE11=Bo Diddley - Diddy Wah Diddy
TTITLE12=Laura Lee - Hang It Up
TTITLE13=Dale Hawkins - Suzie Q
TTITLE14=Sonny Boy Williams - Bring It On Home
TTITLE15=Percy Sledge - If Loving You Is Wrong (I Don't Want To Be Right)
TTITLE16=Solomon Burke - If You Need Me
TTITLE17=Etta James - I'd Rather Go Blind
EXTD=
EXTT0=
EXTT1=
EXTT2=
EXTT3=
EXTT4=
EXTT5=
EXTT6=
EXTT7=
EXTT8=
EXTT9=
EXTT10=
EXTT11=
EXTT12=
EXTT13=
EXTT14=
EXTT15=
EXTT16=
EXTT17=
PLAYORDER=
